<svg id="Layer_1" data-name="Layer 1" xmlns="http://www.w3.org/2000/svg" viewBox="0 0 951.61 622.74"><defs><style>.cls-1{fill:#e6e6e6;}.cls-2{fill:#ffb6b6;}.cls-3{fill:#e8505b;}.cls-4{fill:#f2f2f2;}.cls-5{fill:#fff;}.cls-6{fill:#2f2e41;}.cls-7{fill:#fd6584;}.cls-8{fill:#ccc;}.cls-12,.cls-9{isolation:isolate;}.cls-9{opacity:0.1;}.cls-10{fill:#494233;}.cls-11{fill:#ffb9b9;}.cls-12{opacity:0.05;}.cls-13{fill:#3f3d56;}</style></defs><path class="cls-1" d="M735.83,1.14h0c.28.14.32.65.08,1.15L431.31,622.84l-1-.51L734.87,1.78C735.11,1.28,735.54,1,735.83,1.14Z" transform="translate(-24.53 -1.1)"/><path class="cls-2" d="M123,324.8a9.66,9.66,0,0,1,6.07-18.2l72.38-44.93,12.64,16.65L136.45,318.7a10,10,0,0,1-.59,1.58A9.6,9.6,0,0,1,123,324.8Z" transform="translate(-24.53 -1.1)"/><path class="cls-3" d="M212.49,211.36l-22.6.82L185,255l-3.9,15.06c-2.2.25-5.73,1.54-4.25,7L199,288.35a7.54,7.54,0,0,0-.9-9.21c6.58-10,17.08-48.29,19.75-56.48,3.34-10.22-1.71-10.81-1.71-10.81Z" transform="translate(-24.53 -1.1)"/><path class="cls-4" d="M291.94,620.44l.48-1.75c-2-7.25-4-14.61-3.9-21.94s2.58-14.76,8.42-19.58c9.4-7.74,24.28-6.86,37.53-7.18,34-.81,66.63-12.8,90.21-33.17,4,28.17-15.25,54.53-41.82,68.16S323.67,621.45,291.94,620.44Z" transform="translate(-24.53 -1.1)"/><path class="cls-5" d="M424,536.77c.34-.71,1.69-.29,1.35.42a101.48,101.48,0,0,1-22.85,31,108.38,108.38,0,0,1-29.21,19.48,50.4,50.4,0,0,1-15.62,4.51,37.86,37.86,0,0,1-15.86-2.09c-5-1.66-10-3.85-15.34-4.07-6.06-.26-11,2.68-14.52,6.61-7.52,8.45-8.54,20.73-18.12,27.81-.66.49-1.64-.46-1-.95,5.51-4.07,8.2-10.14,10.89-15.94,2.42-5.22,5.12-10.46,9.79-14.34a19.09,19.09,0,0,1,14.27-4.34c5.2.53,10.09,2.66,15,4.26a35.18,35.18,0,0,0,16.25,1.6,53.64,53.64,0,0,0,15.41-5.06C396.67,575,414.22,557.46,424,536.77Z" transform="translate(-24.53 -1.1)"/><path class="cls-5" d="M382.94,581.74a19.57,19.57,0,0,0,22.27,5c.77-.36,1.45.77.68,1.13-7.87,3.6-18.12,1.36-23.95-5.29C381.37,581.89,382.37,581.09,382.94,581.74Z" transform="translate(-24.53 -1.1)"/><path class="cls-5" d="M343.85,590.1a29.58,29.58,0,0,1,12-21c.67-.5,1.65.45,1,.95a28.39,28.39,0,0,0-11.59,20.19C345.18,591,343.78,590.89,343.85,590.1Z" transform="translate(-24.53 -1.1)"/><path class="cls-5" d="M410.4,558.58l.07.07a.57.57,0,0,1-.08.81.8.8,0,0,1-1-.08A10.74,10.74,0,0,1,405,550c.08-.79,1.48-.69,1.4.1a9.61,9.61,0,0,0,4,8.47Z" transform="translate(-24.53 -1.1)"/><path class="cls-4" d="M334.87,481c14.12,14.39,20.21,33.35,19.59,51.9a76.75,76.75,0,0,1-5.83,26.94,94.94,94.94,0,0,1-4.72,9.67,108.17,108.17,0,0,1-11.31,16.27c-.28.36-.58.7-.87,1-9.59,11.28-21.38,21.16-34,30,0,0,0,0,0,0q-2.49,1.72-5,3.42l-.29.19-.1.07a3.15,3.15,0,0,0-.33.22l-.51.33c-.29.19-.59.4-.88.58l-.83-1.73-.3-.24-22.81-42.68a18.5,18.5,0,0,1,1.28-2.36c4.53-7.32,13-12.79,20.39-18.35a122.24,122.24,0,0,0,14.77-13.17,115.67,115.67,0,0,0,25.25-40.88c.18-.48.35-1,.5-1.46a105.84,105.84,0,0,0,4.66-19.36c.08-.49.15-1,.22-1.48Z" transform="translate(-24.53 -1.1)"/><path class="cls-5" d="M333.24,480.2c-.23-.78,1.07-1.16,1.3-.38a102.35,102.35,0,0,1,3.85,38.4,92.5,92.5,0,0,1-8.75,32.09,39.37,39.37,0,0,1-8.7,12.17,31,31,0,0,1-13.37,6.75c-4.88,1.28-10.17,2.13-14.32,4.78-4.74,3-6.47,8.17-6.43,13.37.07,11.16,7.65,22.07,5.25,33.17-.16.78-1.55.5-1.38-.27,1.38-6.39-.72-12.95-2.64-19.28-1.72-5.71-3.26-11.58-2.38-17.35a15.13,15.13,0,0,1,7.8-11.31c4.28-2.34,9.41-3.17,14.22-4.47A28.59,28.59,0,0,0,321,560.51,42.25,42.25,0,0,0,329.18,548c9.46-20.87,10.75-45.08,4.06-67.78Z" transform="translate(-24.53 -1.1)"/><path class="cls-5" d="M332.68,541.37c-.88-.25-.67-1.46.2-1.22,8.33,2.32,16.89-.95,20.14-7.75.34-.72,1.62-.13,1.28.59-3.47,7.26-12.72,10.86-21.62,8.38Z" transform="translate(-24.53 -1.1)"/><path class="cls-5" d="M310.25,567.5c.49.71-.64,1.37-1.12.67A31.39,31.39,0,0,1,303.87,544c.16-.78,1.55-.5,1.38.27a30.19,30.19,0,0,0,5,23.25Z" transform="translate(-24.53 -1.1)"/><path class="cls-5" d="M338.4,506.64c-.06.35-.41.5-.79.46a13.26,13.26,0,0,1-9.67-5.56c-.47-.71.65-1.37,1.12-.66a11.86,11.86,0,0,0,8.76,5A.69.69,0,0,1,338.4,506.64Z" transform="translate(-24.53 -1.1)"/><polygon class="cls-2" points="175.5 264.91 169.05 264.85 174.11 301.35 228.03 307.76 226.86 283.41 228.86 264.85 175.5 264.91"/><polygon class="cls-2" points="256.83 556.43 239.43 556.43 245.04 601.9 256.83 601.9 256.83 556.43"/><path class="cls-6" d="M287.58,623.43h-8.45l-1.51-8-3.87,8H251.33a5,5,0,0,1-2.87-9.19l17.91-12.36v-8.07l18.84,1.12Z" transform="translate(-24.53 -1.1)"/><polygon class="cls-2" points="190.61 556.43 173.21 556.43 178.82 601.9 190.61 601.9 190.61 556.43"/><path class="cls-6" d="M221.36,623.43h-8.45l-1.51-8-3.87,8H185.11a5,5,0,0,1-2.87-9.19l17.91-12.36v-8.07L219,594.93Z" transform="translate(-24.53 -1.1)"/><path class="cls-6" d="M286.44,563.79h0a3.12,3.12,0,1,1,0,6.23H263.39a3.11,3.11,0,0,1-2.09-5.41L244.41,476l-16.53-81.78-4.37,66.5-.94,14.78.46,13-4.13,71.34,1.93-1c1.2-.41,2.62.57,3.18,2.2s.05,3.28-1.14,3.69l-28.49,1c-1.19.41-2.62-.57-3.18-2.2s0-3.28,1.14-3.69l.34-.17c-12.15-70.42-13.54-143.11-5.89-217.71l11.59-39.79h53.94s36,31.94,28.46,80.91l2.11,69a24.83,24.83,0,0,1,1.42,15l-.84,3.9.33.59a19.36,19.36,0,0,1,.25,18.27l2.27,73.93Z" transform="translate(-24.53 -1.1)"/><circle class="cls-2" cx="219.44" cy="140.91" r="28.94"/><path class="cls-6" d="M386.62,238.91a80,80,0,0,1-44.14-35.21c-6.49-11-10.2-23.36-13.67-35.64-3-10.54-5.83-21.2-10.23-31.21q-1.08-2.47-2.29-4.89a78.3,78.3,0,0,0-4.07-7.12A26.25,26.25,0,0,0,301,120.39a72.32,72.32,0,0,1,8.58.6,53.08,53.08,0,0,0-18.95-16.49c-11.43-5.66-26.07-5.79-36.34,1.78a28.32,28.32,0,0,0-32.89-3.62c-7.1,4.22-12.19,13.75-7.91,20.81,2.58,4.28,7.55,6.15,12.51,7.4a16.64,16.64,0,0,0-4.5-6.42c2.46,1.69,3.15,1.83,5.21,3.62a53.81,53.81,0,0,1,4.08,3.91l11.58,2.54c-1.38-3.94-4.36-7.75-8.82-11.12a60,60,0,0,1,16.53,12.36c.26.29.51.57.74.87a14.62,14.62,0,0,1,6.44,4c3.14,3.58,3.49,8.95,2.13,13.49s-4.23,8.49-7,12.34h-.42c-.63,6.4,4.7,13.77,4.07,20.17-1.33,13.43-2.66,27-1.25,40.41s5.76,26.91,14.6,37.13c8.17,9.43,19.63,15.5,31.44,19.56a99.83,99.83,0,0,0,24.34,5.22,63.82,63.82,0,0,0-9.72-35.88,94.33,94.33,0,0,1,20.27,36,63.42,63.42,0,0,0,21.63-4.86,49.32,49.32,0,0,0,6.6-3.46,63.73,63.73,0,0,0-9.66-30.87,94.36,94.36,0,0,1,16.53,25.79C381.38,266.38,388.16,252.8,386.62,238.91Z" transform="translate(-24.53 -1.1)"/><path class="cls-3" d="M197.53,204.41c-19.61,9.21-7.47,33.78-7.47,33.78L190,269.3l67.17,8.4,10-41.32,6.46-34-14.77-11.28-6.13-12.28-25.23-2.06-7.08,11.45-5.61,2.11Z" transform="translate(-24.53 -1.1)"/><path class="cls-7" d="M258.93,142.48a40.27,40.27,0,0,0-4.85-35.41" transform="translate(-24.53 -1.1)"/><path class="cls-8" d="M24.53,622.65a1.2,1.2,0,0,0,1.18,1.19H306a1.19,1.19,0,1,0,0-2.38H25.72a1.18,1.18,0,0,0-1.19,1.18Z" transform="translate(-24.53 -1.1)"/><path id="f731b694-f804-4551-a9ab-28894637a524-307" class="cls-1" d="M165.81,445.49" transform="translate(-24.53 -1.1)"/><path class="cls-2" d="M240.91,347.06a9.66,9.66,0,0,1-9.12-16.88l16.75-83.53,20.79,2.17L245.64,333.1a11.28,11.28,0,0,1,.75,1.52,9.61,9.61,0,0,1-5.48,12.44Z" transform="translate(-24.53 -1.1)"/><path class="cls-3" d="M269.17,202.36,247.3,207l-4,51.4-2.69,15.33c-2.17.42-3.64,5.23-1.74,10.53l23,9.48a7.53,7.53,0,0,0-1.64-9.11c5.77-10.48,13.15-63,15.15-71.4,2.51-10.46-2.56-10.64-2.56-10.64Z" transform="translate(-24.53 -1.1)"/><circle class="cls-3" cx="136.52" cy="82.45" r="15.45"/><path class="cls-5" d="M166.26,81.18h-10a2.38,2.38,0,0,0,0,4.75h10a2.38,2.38,0,1,0,0-4.75Z" transform="translate(-24.53 -1.1)"/><circle class="cls-3" cx="372.69" cy="127.42" r="15.45"/><path class="cls-5" d="M402.43,126.16h-10a2.38,2.38,0,0,0,0,4.75h10a2.38,2.38,0,1,0,0-4.75Z" transform="translate(-24.53 -1.1)"/><circle class="cls-3" cx="95.89" cy="226.12" r="15.45"/><path class="cls-5" d="M125.63,224.85h-10a2.38,2.38,0,0,0,0,4.75h10a2.38,2.38,0,1,0,0-4.75Z" transform="translate(-24.53 -1.1)"/><circle class="cls-3" cx="861.85" cy="374.5" r="15.45"/><path class="cls-5" d="M891.59,373.24h-10a2.38,2.38,0,1,0,0,4.75h10a2.38,2.38,0,0,0,0-4.75Z" transform="translate(-24.53 -1.1)"/><circle class="cls-3" cx="784.19" cy="254.65" r="15.45"/><path class="cls-5" d="M813.93,253.38h-10a2.38,2.38,0,0,0,0,4.75h10a2.38,2.38,0,1,0,0-4.75Z" transform="translate(-24.53 -1.1)"/><circle class="cls-3" cx="631.42" cy="337.03" r="15.45"/><path class="cls-5" d="M661.17,335.76h-10a2.38,2.38,0,1,0,0,4.75h10a2.38,2.38,0,0,0,0-4.75Z" transform="translate(-24.53 -1.1)"/><ellipse class="cls-9" cx="727.2" cy="574.49" rx="224.41" ry="35.29"/><path class="cls-10" d="M742,287.79c-6.82,2.49-13,8.31-14.39,15.95-.65,3.53-.25,7.21-.79,10.77-1.27,8.25-7.26,14.55-12.78,20.41s-11.23,12.65-11.64,21c-.44,9.15,5.7,17.72,4.63,26.81-1.23,10.55-11.54,17.39-14.09,27.67-1.7,6.86.38,14.26,3.81,20.32,6.54,11.54,17.72,19.38,29.63,23.58s24.58,5.09,37.1,5.23c15.25.17,31.8-1.24,43.26-12.12A38.64,38.64,0,0,0,818.2,423c1.08-12.61-3.78-25.63-.43-37.76,2.12-7.63,7.41-14.6,6.62-22.52-.77-7.74-7-13.23-11.32-19.49-4-5.84-6.44-12.73-8.82-19.54l-8.15-23.26c-1.6-4.58-3.36-9.39-6.94-12.39-6.68-5.62-17.44-4.52-25.25-3.36C756.65,285.78,748.93,285.25,742,287.79Z" transform="translate(-24.53 -1.1)"/><path class="cls-11" d="M744.51,355.57s3.61,12.7-23.5,27.36,2.71,30.28,2.71,30.28L755.35,421s32.53-4.89,36.14-10.75,9.94-25.4,8.13-28.33a44.69,44.69,0,0,0-4.51-5.86s-21.69-3.91-20.79-14.65S744.51,355.57,744.51,355.57Z" transform="translate(-24.53 -1.1)"/><path class="cls-9" d="M744.51,355.57s3.61,12.7-23.5,27.36,2.71,30.28,2.71,30.28L755.35,421s32.53-4.89,36.14-10.75,9.94-25.4,8.13-28.33a44.69,44.69,0,0,0-4.51-5.86s-21.69-3.91-20.79-14.65S744.51,355.57,744.51,355.57Z" transform="translate(-24.53 -1.1)"/><ellipse class="cls-11" cx="737.59" cy="343.24" rx="28.91" ry="31.26"/><path class="cls-3" d="M759,410.28s-34.82-2.75-35.48-28.73c0,0-12.41-1.55-16,2.36s-15.36,6.83-15.36,16.6S712,439.59,712,439.59s10.84,39.08,6.32,45.92-5.42,24.42-5.42,24.42,45.18-3.91,52.41,0,36.14,3.91,38,0-1.81-52.75-1.81-52.75,8.13-11.73,6.33-25.4l21.68-27.36S821.31,378,808.66,378c0,0-17.17-4.88-17.62-2.44S799.62,405.4,759,410.28Z" transform="translate(-24.53 -1.1)"/><path class="cls-11" d="M677.64,496.25s8.13,13.68,28.91,16.61S731,508,729.14,506s-23.49-10.74-23.49-10.74L693,484.53Z" transform="translate(-24.53 -1.1)"/><path class="cls-11" d="M825.83,484.53l-23.5,14.65s-30.72-1.95-19,7.82,33.43,5.86,33.43,5.86l20.78-10.75Z" transform="translate(-24.53 -1.1)"/><path class="cls-6" d="M708.36,509.93s-21.68,57.64,4.52,66.43,98.49,6.84,114.76-4.88,20.78-27.36,18.07-32.24-20.79-18.56-33.44-19.54S708.36,509.93,708.36,509.93Z" transform="translate(-24.53 -1.1)"/><path class="cls-12" d="M708.36,509.93s-21.68,57.64,4.52,66.43,98.49,6.84,114.76-4.88,20.78-27.36,18.07-32.24-20.79-18.56-33.44-19.54S708.36,509.93,708.36,509.93Z" transform="translate(-24.53 -1.1)"/><path class="cls-6" d="M810.73,513.51s76.54-30,75.64,6.19-48.8,45.92-48.8,45.92l-14.45,2L743.6,570.5s2.71-15.63-3.61-17.58c0,0,20.78-5.87,21.68-6.84s52.41-20.52,56-21.5,14.45-8.79,22.59-7.81c0,0,9-7.82,19-5.86l-28,1.95Z" transform="translate(-24.53 -1.1)"/><path class="cls-9" d="M810.73,513.51s76.54-30,75.64,6.19-48.8,45.92-48.8,45.92l-14.45,2L743.6,570.5s2.71-15.63-3.61-17.58c0,0,20.78-5.87,21.68-6.84s52.41-20.52,56-21.5,14.45-8.79,22.59-7.81c0,0,9-7.82,19-5.86l-28,1.95Z" transform="translate(-24.53 -1.1)"/><polygon class="cls-6" points="772.67 517.26 782.32 541.07 841.05 518.6 845.57 505.9 830.21 502.97 799.33 508.83 785.94 512.74 772.67 517.26"/><polygon class="cls-9" points="772.67 517.26 782.32 541.07 841.05 518.6 845.57 505.9 830.21 502.97 799.33 508.83 785.94 512.74 772.67 517.26"/><path class="cls-6" d="M672.22,547.05s17.17,23.45,37,29.31,30.72-2,30.72-2l-6.33-27.36L731,529.47l-11.75-8.79L695.71,509l-28-9.77s-11.75-1.95-11.75,0,10.85,31.27,10.85,31.27Z" transform="translate(-24.53 -1.1)"/><path class="cls-4" d="M693,559.75s3.62,28.34,8.13,30.29,18.07-1.95,21.69-3.91,15.9-11,15.9-11S695.71,557.8,693,559.75Z" transform="translate(-24.53 -1.1)"/><polygon class="cls-11" points="750.7 561.59 767.87 564.52 766.06 586.99 742.11 580.7 750.7 561.59"/><path class="cls-4" d="M786,568.94s-8,10.35.09,16.21l5.42,4.89s18.07,3.91,19.88,5.86,9-2.93,9-2.93.9-29.31,0-31.26-11.75-3.91-12.65-2-11.75,4.89-18.08,2.93Z" transform="translate(-24.53 -1.1)"/><path class="cls-6" d="M713.78,516.77s-63.25-40.06-73.19-25.4-20.78,35.17,8.14,50.8S768,590,768,590s13.55-22.47,13.55-28.33c0,0-47.89-23.45-56-25.4s-40.66-24.43-45.18-26.38-10.84-7.82-10.84-7.82Z" transform="translate(-24.53 -1.1)"/><path class="cls-3" d="M695.71,395.63l-3.61,2.93s-8.13,22.47-9,35.17-11.75,51.78-10.84,56.66,1.81,8.79,7.23,13.68c0,0,7.23-17.59,19.88-14.66l15.36-60.57Z" transform="translate(-24.53 -1.1)"/><path class="cls-3" d="M822.21,395.63l7.23,8.79S834,416.14,834,419.07s9,45.92,9.94,47.87,4.52,26.38,0,32.24S831.25,509,831.25,509s5.42-20.51-11.75-21.49l1.81-7.81L805.05,421Z" transform="translate(-24.53 -1.1)"/><path class="cls-13" d="M697.52,462.89v51.46c0,6.76,5,12.27,11.27,12.37l99.54,1.59c6.21.1,11.36-5.18,11.6-11.89L821.76,465c.25-6.82-4.68-12.57-11-12.84h-.28l-101.36-1.59c-6.32-.1-11.52,5.36-11.61,12.19Z" transform="translate(-24.53 -1.1)"/><ellipse class="cls-10" cx="739.29" cy="324.12" rx="31.12" ry="18.12"/><ellipse class="cls-4" cx="733.98" cy="488.8" rx="7.23" ry="7.82"/></svg>