<?xml version="1.0" encoding="utf-8"?>
<!-- Generator: Adobe Illustrator 27.0.0, SVG Export Plug-In . SVG Version: 6.00 Build 0)  -->
<svg version="1.1" id="Layer_1" xmlns="http://www.w3.org/2000/svg" xmlns:xlink="http://www.w3.org/1999/xlink" x="0px" y="0px"
	 viewBox="0 0 1082.2 638.5" style="enable-background:new 0 0 1082.2 638.5;" xml:space="preserve">
<style type="text/css">
	.st0{fill:#65617D;}
	.st1{opacity:0.1;}
	.st2{fill:#E8505B;}
	.st3{fill:#060408;}
	.st4{fill:#070708;}
	.st5{fill:#020106;}
	.st6{fill:#050408;}
	.st7{fill:#040409;}
	.st8{opacity:0.1;fill:#E8505B;enable-background:new    ;}
	.st9{fill:#FDC2CC;}
	.st10{fill:#2F2E41;}
	.st11{fill:#5F5D7E;}
	.st12{opacity:0.1;enable-background:new    ;}
	.st13{fill:#464A5F;}
	.st14{fill:url(#SVGID_1_);}
	.st15{fill:#D6D8E1;}
	.st16{fill:#E6E8ED;}
	.st17{fill:#5A5773;}
	.st18{fill:url(#SVGID_00000128486872555748113890000008419068630498435712_);}
</style>
<rect id="Path" y="609.6" class="st0" width="1082.2" height="28.9"/>
<g id="Background_Tiles" class="st1">
	<path class="st2" d="M509.7,19.4h65c5.5,0,9.9,4.4,9.9,9.9v18.9c0,5.5-4.4,9.9-9.9,9.9h-65c-5.5,0-9.9-4.4-9.9-9.9V29.3
		C499.8,23.8,504.2,19.4,509.7,19.4z"/>
	<path class="st2" d="M594.5,19.4h65c5.5,0,9.9,4.4,9.9,9.9v18.9c0,5.5-4.4,9.9-9.9,9.9h-65c-5.5,0-9.9-4.4-9.9-9.9V29.3
		C584.6,23.8,589,19.4,594.5,19.4z"/>
	<path class="st2" d="M679.3,19.4h65c5.5,0,9.9,4.4,9.9,9.9v18.9c0,5.5-4.4,9.9-9.9,9.9h-65c-5.5,0-9.9-4.4-9.9-9.9V29.3
		C669.4,23.8,673.8,19.4,679.3,19.4z"/>
	<path class="st2" d="M764.1,19.4h65c5.5,0,9.9,4.4,9.9,9.9v18.9c0,5.5-4.4,9.9-9.9,9.9h-65c-5.5,0-9.9-4.4-9.9-9.9V29.3
		C754.2,23.8,758.6,19.4,764.1,19.4z"/>
	<path class="st2" d="M509.7,56h65c5.5,0,9.9,4.4,9.9,9.9v18.9c0,5.5-4.4,9.9-9.9,9.9h-65c-5.5,0-9.9-4.4-9.9-9.9V65.9
		C499.8,60.4,504.2,56,509.7,56z"/>
	<path class="st2" d="M594.5,56h65c5.5,0,9.9,4.4,9.9,9.9v18.9c0,5.5-4.4,9.9-9.9,9.9h-65c-5.5,0-9.9-4.4-9.9-9.9V65.9
		C584.6,60.4,589,56,594.5,56z"/>
	<path class="st2" d="M679.3,56h65c5.5,0,9.9,4.4,9.9,9.9v18.9c0,5.5-4.4,9.9-9.9,9.9h-65c-5.5,0-9.9-4.4-9.9-9.9V65.9
		C669.4,60.4,673.8,56,679.3,56z"/>
	<path class="st2" d="M764.1,56h65c5.5,0,9.9,4.4,9.9,9.9v18.9c0,5.5-4.4,9.9-9.9,9.9h-65c-5.5,0-9.9-4.4-9.9-9.9V65.9
		C754.2,60.4,758.6,56,764.1,56z"/>
	<path class="st2" d="M426.7,92.4H488c6.5,0,11.8,5.3,11.8,11.8v15.1c0,6.5-5.3,11.8-11.8,11.8h-61.2c-6.5,0-11.8-5.3-11.8-11.8
		v-15.1C414.9,97.7,420.2,92.4,426.7,92.4z"/>
	<path class="st2" d="M596.4,92.4h61.2c6.5,0,11.8,5.3,11.8,11.8v15.1c0,6.5-5.3,11.8-11.8,11.8h-61.2c-6.5,0-11.8-5.3-11.8-11.8
		v-15.1C584.6,97.7,589.9,92.4,596.4,92.4z"/>
	<path class="st2" d="M681.2,92.4h61.2c6.5,0,11.8,5.3,11.8,11.8v15.1c0,6.5-5.3,11.8-11.8,11.8h-61.2c-6.5,0-11.8-5.3-11.8-11.8
		v-15.1C669.4,97.7,674.7,92.4,681.2,92.4z"/>
	<path class="st2" d="M766,92.4h61.2c6.5,0,11.8,5.3,11.8,11.8v15.1c0,6.5-5.3,11.8-11.8,11.8H766c-6.5,0-11.8-5.3-11.8-11.8v-15.1
		C754.2,97.7,759.5,92.4,766,92.4z"/>
	<path class="st2" d="M511.5,129h61.2c6.5,0,11.8,5.3,11.8,11.8v15.1c0,6.5-5.3,11.8-11.8,11.8h-61.2c-6.5,0-11.8-5.3-11.8-11.8
		v-15.1C499.8,134.3,505,129,511.5,129z"/>
	<path class="st2" d="M596.4,129h61.2c6.5,0,11.8,5.3,11.8,11.8v15.1c0,6.5-5.3,11.8-11.8,11.8h-61.2c-6.5,0-11.8-5.3-11.8-11.8
		v-15.1C584.6,134.3,589.9,129,596.4,129z"/>
	<path class="st2" d="M681.2,129h61.2c6.5,0,11.8,5.3,11.8,11.8v15.1c0,6.5-5.3,11.8-11.8,11.8h-61.2c-6.5,0-11.8-5.3-11.8-11.8
		v-15.1C669.4,134.3,674.7,129,681.2,129z"/>
	<path class="st2" d="M426.7,165.5H488c6.5,0,11.8,5.3,11.8,11.8v15.1c0,6.5-5.3,11.8-11.8,11.8h-61.2c-6.5,0-11.8-5.3-11.8-11.8
		v-15.1C414.9,170.8,420.2,165.5,426.7,165.5z"/>
	<path class="st2" d="M426.7,275.1H488c6.5,0,11.8,5.3,11.8,11.8v15.1c0,6.5-5.3,11.8-11.8,11.8h-61.2c-6.5,0-11.8-5.3-11.8-11.8
		v-15.1C414.9,280.4,420.2,275.1,426.7,275.1z"/>
	<path class="st2" d="M596.4,165.5h61.2c6.5,0,11.8,5.3,11.8,11.8v15.1c0,6.5-5.3,11.8-11.8,11.8h-61.2c-6.5,0-11.8-5.3-11.8-11.8
		v-15.1C584.6,170.8,589.9,165.5,596.4,165.5z"/>
	<path class="st2" d="M681.2,165.5h61.2c6.5,0,11.8,5.3,11.8,11.8v15.1c0,6.5-5.3,11.8-11.8,11.8h-61.2c-6.5,0-11.8-5.3-11.8-11.8
		v-15.1C669.4,170.8,674.7,165.5,681.2,165.5z"/>
	<path class="st2" d="M766,165.5h61.2c6.5,0,11.8,5.3,11.8,11.8v15.1c0,6.5-5.3,11.8-11.8,11.8H766c-6.5,0-11.8-5.3-11.8-11.8v-15.1
		C754.2,170.8,759.5,165.5,766,165.5z"/>
	<path class="st2" d="M850.8,56H912c6.5,0,11.8,5.3,11.8,11.8v15.1c0,6.5-5.3,11.8-11.8,11.8h-61.2c-6.5,0-11.8-5.3-11.8-11.8V67.8
		C839,61.2,844.3,56,850.8,56z"/>
	<path class="st2" d="M845.8,129h71.3c3.7,0,6.8,3,6.8,6.8V161c0,3.7-3,6.8-6.8,6.8h-71.3c-3.7,0-6.8-3-6.8-6.8v-25.2
		C839,132,842,129,845.8,129z"/>
	<path class="st2" d="M845.8,165.5h71.3c3.7,0,6.8,3,6.8,6.8v25.2c0,3.7-3,6.8-6.8,6.8h-71.3c-3.7,0-6.8-3-6.8-6.8v-25.2
		C839,168.5,842,165.5,845.8,165.5z"/>
	<path class="st2" d="M511.3,202.1H573c6.4,0,11.6,5.2,11.6,11.6v15.6c0,6.4-5.2,11.6-11.6,11.6h-61.7c-6.4,0-11.6-5.2-11.6-11.6
		v-15.6C499.8,207.3,504.9,202.1,511.3,202.1z"/>
	<path class="st2" d="M596.1,202.1h61.7c6.4,0,11.6,5.2,11.6,11.6v15.6c0,6.4-5.2,11.6-11.6,11.6h-61.7c-6.4,0-11.6-5.2-11.6-11.6
		v-15.6C584.6,207.3,589.7,202.1,596.1,202.1z"/>
	<path class="st2" d="M681,202.1h61.7c6.4,0,11.6,5.2,11.6,11.6v15.6c0,6.4-5.2,11.6-11.6,11.6H681c-6.4,0-11.6-5.2-11.6-11.6v-15.6
		C669.4,207.3,674.6,202.1,681,202.1z"/>
	<path class="st2" d="M765.8,202.1h61.7c6.4,0,11.6,5.2,11.6,11.6v15.6c0,6.4-5.2,11.6-11.6,11.6h-61.7c-6.4,0-11.6-5.2-11.6-11.6
		v-15.6C754.2,207.3,759.4,202.1,765.8,202.1z"/>
	<path class="st2" d="M426.5,238.6h61.7c6.4,0,11.6,5.2,11.6,11.6v15.6c0,6.4-5.2,11.6-11.6,11.6h-61.7c-6.4,0-11.6-5.2-11.6-11.6
		v-15.6C414.9,243.7,420.1,238.6,426.5,238.6z"/>
	<path class="st2" d="M341.7,238.6h61.7c6.4,0,11.6,5.2,11.6,11.6v15.6c0,6.4-5.2,11.6-11.6,11.6h-61.7c-6.4,0-11.6-5.2-11.6-11.6
		v-15.6C330.1,243.7,335.3,238.6,341.7,238.6z"/>
	<path class="st2" d="M320.6,0h61.7c6.4,0,11.6,5.2,11.6,11.6v15.6c0,6.4-5.2,11.6-11.6,11.6h-61.7c-6.4,0-11.6-5.2-11.6-11.6V11.6
		C309,5.2,314.2,0,320.6,0z"/>
	<path class="st2" d="M268.6,38.7h61.7c6.4,0,11.6,5.2,11.6,11.6v15.6c0,6.4-5.2,11.6-11.6,11.6h-61.7c-6.4,0-11.6-5.2-11.6-11.6
		V50.3C257,43.9,262.2,38.7,268.6,38.7z"/>
	<path class="st2" d="M191.6,180.5h61.7c6.4,0,11.6,5.2,11.6,11.6v15.6c0,6.4-5.2,11.6-11.6,11.6h-61.7c-6.4,0-11.6-5.2-11.6-11.6
		v-15.6C180,185.7,185.2,180.5,191.6,180.5z"/>
	<path class="st2" d="M234,219.2h61.7c6.4,0,11.6,5.2,11.6,11.6v15.6c0,6.4-5.2,11.6-11.6,11.6H234c-6.4,0-11.6-5.2-11.6-11.6v-15.6
		C222.4,224.4,227.6,219.2,234,219.2z"/>
	<path class="st2" d="M511.3,238.6H573c6.4,0,11.6,5.2,11.6,11.6v15.6c0,6.4-5.2,11.6-11.6,11.6h-61.7c-6.4,0-11.6-5.2-11.6-11.6
		v-15.6C499.8,243.7,504.9,238.6,511.3,238.6z"/>
	<path class="st2" d="M596.1,238.6h61.7c6.4,0,11.6,5.2,11.6,11.6v15.6c0,6.4-5.2,11.6-11.6,11.6h-61.7c-6.4,0-11.6-5.2-11.6-11.6
		v-15.6C584.6,243.7,589.7,238.6,596.1,238.6z"/>
	<path class="st2" d="M681,238.6h61.7c6.4,0,11.6,5.2,11.6,11.6v15.6c0,6.4-5.2,11.6-11.6,11.6H681c-6.4,0-11.6-5.2-11.6-11.6v-15.6
		C669.4,243.7,674.6,238.6,681,238.6z"/>
	<path class="st2" d="M765.8,238.6h61.7c6.4,0,11.6,5.2,11.6,11.6v15.6c0,6.4-5.2,11.6-11.6,11.6h-61.7c-6.4,0-11.6-5.2-11.6-11.6
		v-15.6C754.2,243.7,759.4,238.6,765.8,238.6z"/>
	<path class="st2" d="M595.8,275.1h62.4c6.2,0,11.2,5,11.2,11.2v16.3c0,6.2-5,11.2-11.2,11.2h-62.4c-6.2,0-11.2-5-11.2-11.2v-16.3
		C584.6,280.2,589.6,275.1,595.8,275.1z"/>
	<path class="st2" d="M680.6,275.1H743c6.2,0,11.2,5,11.2,11.2v16.3c0,6.2-5,11.2-11.2,11.2h-62.4c-6.2,0-11.2-5-11.2-11.2v-16.3
		C669.4,280.2,674.4,275.1,680.6,275.1z"/>
	<path class="st2" d="M426.1,311.6h62.4c6.2,0,11.2,5,11.2,11.2v16.3c0,6.2-5,11.2-11.2,11.2h-62.4c-6.2,0-11.2-5-11.2-11.2v-16.3
		C414.9,316.6,419.9,311.6,426.1,311.6z"/>
	<path class="st2" d="M511,311.6h62.4c6.2,0,11.2,5,11.2,11.2v16.3c0,6.2-5,11.2-11.2,11.2H511c-6.2,0-11.2-5-11.2-11.2v-16.3
		C499.8,316.6,504.8,311.6,511,311.6z"/>
	<path class="st2" d="M511,348.1h62.4c6.2,0,11.2,5,11.2,11.2v16.3c0,6.2-5,11.2-11.2,11.2H511c-6.2,0-11.2-5-11.2-11.2v-16.3
		C499.8,353.2,504.8,348.1,511,348.1z"/>
	<path class="st2" d="M595.8,311.6h62.4c6.2,0,11.2,5,11.2,11.2v16.3c0,6.2-5,11.2-11.2,11.2h-62.4c-6.2,0-11.2-5-11.2-11.2v-16.3
		C584.6,316.6,589.6,311.6,595.8,311.6z"/>
	<path class="st2" d="M680.6,311.6H743c6.2,0,11.2,5,11.2,11.2v16.3c0,6.2-5,11.2-11.2,11.2h-62.4c-6.2,0-11.2-5-11.2-11.2v-16.3
		C669.4,316.6,674.4,311.6,680.6,311.6z"/>
	<path class="st2" d="M765.4,311.6h62.4c6.2,0,11.2,5,11.2,11.2v16.3c0,6.2-5,11.2-11.2,11.2h-62.4c-6.2,0-11.2-5-11.2-11.2v-16.3
		C754.2,316.6,759.2,311.6,765.4,311.6z"/>
	<path class="st2" d="M595.8,348.2h62.4c6.2,0,11.2,5,11.2,11.2v16.3c0,6.2-5,11.2-11.2,11.2h-62.4c-6.2,0-11.2-5-11.2-11.2v-16.3
		C584.6,353.2,589.6,348.2,595.8,348.2z"/>
	<path class="st2" d="M680.6,348.2H743c6.2,0,11.2,5,11.2,11.2v16.3c0,6.2-5,11.2-11.2,11.2h-62.4c-6.2,0-11.2-5-11.2-11.2v-16.3
		C669.4,353.2,674.4,348.2,680.6,348.2z"/>
	<path class="st2" d="M426.1,384.7h62.4c6.2,0,11.2,5,11.2,11.2v16.3c0,6.2-5,11.2-11.2,11.2h-62.4c-6.2,0-11.2-5-11.2-11.2v-16.3
		C414.9,389.7,419.9,384.7,426.1,384.7z"/>
	<path class="st2" d="M511,384.7h62.4c6.2,0,11.2,5,11.2,11.2v16.3c0,6.2-5,11.2-11.2,11.2H511c-6.2,0-11.2-5-11.2-11.2v-16.3
		C499.8,389.7,504.8,384.7,511,384.7z"/>
	<path class="st2" d="M595.8,384.7h62.4c6.2,0,11.2,5,11.2,11.2v16.3c0,6.2-5,11.2-11.2,11.2h-62.4c-6.2,0-11.2-5-11.2-11.2v-16.3
		C584.6,389.7,589.6,384.7,595.8,384.7z"/>
	<path class="st2" d="M680.6,384.7H743c6.2,0,11.2,5,11.2,11.2v16.3c0,6.2-5,11.2-11.2,11.2h-62.4c-6.2,0-11.2-5-11.2-11.2v-16.3
		C669.4,389.7,674.4,384.7,680.6,384.7z"/>
	<path class="st2" d="M765.4,384.7h62.4c6.2,0,11.2,5,11.2,11.2v16.3c0,6.2-5,11.2-11.2,11.2h-62.4c-6.2,0-11.2-5-11.2-11.2v-16.3
		C754.2,389.7,759.2,384.7,765.4,384.7z"/>
	<path class="st2" d="M845.8,384.7h71.3c3.7,0,6.8,3,6.8,6.8v25.2c0,3.7-3,6.8-6.8,6.8h-71.3c-3.7,0-6.8-3-6.8-6.8v-25.2
		C839,387.7,842,384.7,845.8,384.7z"/>
	<path class="st2" d="M507.9,421.3h68.5c4.5,0,8.2,3.6,8.2,8.1v22.4c0,4.5-3.6,8.1-8.2,8.1h-68.5c-4.5,0-8.1-3.6-8.1-8.1v-22.4
		C499.8,424.9,503.4,421.3,507.9,421.3z"/>
	<path class="st2" d="M592.7,421.3h68.5c4.5,0,8.2,3.6,8.2,8.1v22.4c0,4.5-3.6,8.1-8.2,8.1h-68.5c-4.5,0-8.2-3.6-8.2-8.1v-22.4
		C584.6,424.9,588.2,421.3,592.7,421.3z"/>
	<path class="st2" d="M677.5,421.3h68.5c4.5,0,8.2,3.6,8.2,8.1v22.4c0,4.5-3.6,8.1-8.2,8.1h-68.5c-4.5,0-8.2-3.6-8.2-8.1v-22.4
		C669.4,424.9,673,421.3,677.5,421.3z"/>
	<path class="st2" d="M762.4,421.3h68.5c4.5,0,8.2,3.6,8.2,8.1v22.4c0,4.5-3.6,8.1-8.2,8.1h-68.5c-4.5,0-8.2-3.6-8.2-8.1v-22.4
		C754.2,424.9,757.8,421.3,762.4,421.3z"/>
	<path class="st2" d="M507.9,457.7h68.5c4.5,0,8.2,3.6,8.2,8.1v22.4c0,4.5-3.6,8.1-8.2,8.1h-68.5c-4.5,0-8.1-3.6-8.1-8.1v-22.4
		C499.8,461.4,503.4,457.7,507.9,457.7z"/>
	<path class="st2" d="M592.7,457.7h68.5c4.5,0,8.2,3.6,8.2,8.1v22.4c0,4.5-3.6,8.1-8.2,8.1h-68.5c-4.5,0-8.2-3.6-8.2-8.1v-22.4
		C584.6,461.4,588.2,457.7,592.7,457.7z"/>
	<path class="st2" d="M677.5,457.7h68.5c4.5,0,8.2,3.6,8.2,8.1v22.4c0,4.5-3.6,8.1-8.2,8.1h-68.5c-4.5,0-8.2-3.6-8.2-8.1v-22.4
		C669.4,461.4,673,457.7,677.5,457.7z"/>
	<path class="st2" d="M762.4,457.7h68.5c4.5,0,8.2,3.6,8.2,8.1v22.4c0,4.5-3.6,8.1-8.2,8.1h-68.5c-4.5,0-8.2-3.6-8.2-8.1v-22.4
		C754.2,461.4,757.8,457.7,762.4,457.7z"/>
	<path class="st2" d="M423.1,494.3h68.5c4.5,0,8.1,3.6,8.1,8.1v22.4c0,4.5-3.6,8.2-8.1,8.2h-68.5c-4.5,0-8.1-3.6-8.1-8.2v-22.4
		C414.9,498,418.6,494.3,423.1,494.3z"/>
	<path class="st2" d="M507.9,494.3h68.5c4.5,0,8.2,3.6,8.2,8.1v22.4c0,4.5-3.6,8.2-8.2,8.2h-68.5c-4.5,0-8.1-3.6-8.1-8.2v-22.4
		C499.8,498,503.4,494.3,507.9,494.3z"/>
	<path class="st2" d="M592.7,494.3h68.5c4.5,0,8.2,3.6,8.2,8.1v22.4c0,4.5-3.6,8.2-8.2,8.2h-68.5c-4.5,0-8.2-3.6-8.2-8.2v-22.4
		C584.6,498,588.2,494.3,592.7,494.3z"/>
	<path class="st2" d="M677.5,494.3h68.5c4.5,0,8.2,3.6,8.2,8.1v22.4c0,4.5-3.6,8.2-8.2,8.2h-68.5c-4.5,0-8.2-3.6-8.2-8.2v-22.4
		C669.4,498,673,494.3,677.5,494.3z"/>
	<path class="st2" d="M762.4,494.3h68.5c4.5,0,8.2,3.6,8.2,8.1v22.4c0,4.5-3.6,8.2-8.2,8.2h-68.5c-4.5,0-8.2-3.6-8.2-8.2v-22.4
		C754.2,498,757.8,494.3,762.4,494.3z"/>
	<path class="st2" d="M423.1,530.8h68.5c4.5,0,8.1,3.6,8.1,8.2v22.4c0,4.5-3.6,8.2-8.1,8.2h-68.5c-4.5,0-8.1-3.6-8.1-8.2v-22.4
		C414.9,534.4,418.6,530.8,423.1,530.8z"/>
	<path class="st2" d="M506.5,530.8h71.3c3.7,0,6.8,3,6.8,6.8v25.2c0,3.7-3,6.8-6.8,6.8h-71.3c-3.7,0-6.8-3-6.8-6.8v-25.2
		C499.8,533.8,502.8,530.8,506.5,530.8z"/>
	<path class="st2" d="M592.7,530.8h68.5c4.5,0,8.2,3.6,8.2,8.2v22.4c0,4.5-3.6,8.2-8.2,8.2h-68.5c-4.5,0-8.2-3.6-8.2-8.2v-22.4
		C584.6,534.4,588.2,530.8,592.7,530.8z"/>
	<path class="st2" d="M677.5,530.8h68.5c4.5,0,8.2,3.6,8.2,8.2v22.4c0,4.5-3.6,8.2-8.2,8.2h-68.5c-4.5,0-8.2-3.6-8.2-8.2v-22.4
		C669.4,534.4,673,530.8,677.5,530.8z"/>
	<path class="st2" d="M760.8,530.8h71.6c3.6,0,6.6,3,6.6,6.6v25.5c0,3.6-3,6.6-6.6,6.6h-71.6c-3.6,0-6.6-3-6.6-6.6v-25.5
		C754.2,533.7,757.2,530.8,760.8,530.8z"/>
	<path class="st2" d="M423.1,567.4h68.5c4.5,0,8.1,3.6,8.1,8.2V598c0,4.5-3.6,8.2-8.1,8.2h-68.5c-4.5,0-8.1-3.6-8.1-8.2v-22.4
		C414.9,571,418.6,567.4,423.1,567.4z"/>
	<path class="st2" d="M507.9,567.4h68.5c4.5,0,8.2,3.6,8.2,8.2V598c0,4.5-3.6,8.2-8.2,8.2h-68.5c-4.5,0-8.1-3.6-8.1-8.2v-22.4
		C499.8,571,503.4,567.4,507.9,567.4z"/>
	<path class="st2" d="M592.7,567.4h68.5c4.5,0,8.2,3.6,8.2,8.2V598c0,4.5-3.6,8.2-8.2,8.2h-68.5c-4.5,0-8.2-3.6-8.2-8.2v-22.4
		C584.6,571,588.2,567.4,592.7,567.4z"/>
	<path class="st2" d="M676,567.4h71.6c3.6,0,6.6,3,6.6,6.6v25.5c0,3.6-3,6.6-6.6,6.6H676c-3.6,0-6.6-3-6.6-6.6V574
		C669.4,570.3,672.3,567.4,676,567.4z"/>
	<path class="st2" d="M760.8,567.4h71.6c3.6,0,6.6,3,6.6,6.6v25.5c0,3.6-3,6.6-6.6,6.6h-71.6c-3.6,0-6.6-3-6.6-6.6V574
		C754.2,570.3,757.2,567.4,760.8,567.4z"/>
	<path class="st2" d="M847.2,494.3h68.5c4.5,0,8.2,3.6,8.2,8.1v22.4c0,4.5-3.6,8.2-8.2,8.2h-68.5c-4.5,0-8.2-3.6-8.2-8.2v-22.4
		C839,498,842.7,494.3,847.2,494.3z"/>
	<path class="st2" d="M845.6,567.4h71.6c3.6,0,6.6,3,6.6,6.6v25.5c0,3.6-3,6.6-6.6,6.6h-71.6c-3.6,0-6.6-3-6.6-6.6V574
		C839,570.3,842,567.4,845.6,567.4z"/>
</g>
<g id="Shadow" class="st1">
	<path class="st3" d="M663.6,86.9c0,0.8,0,1.6-0.1,2.4c-1.4,15.9-15.4,27.6-31.2,26.2s-27.6-15.4-26.2-31.2s15.4-27.6,31.2-26.2
		C652.2,59.4,663.6,71.9,663.6,86.9C663.6,86.9,663.6,86.9,663.6,86.9z"/>
	<path class="st4" d="M634.7,117c2.2,0.4,21.1-7.6,22.8-9.1s2.8-3.4,3.8-5.3c3.2-6.3,4.8-13.3,4.6-20.4c0-3.6-0.7-7.3-2.9-10.2
		c-2.8-3.4-7.5-4.8-11.7-3.4c-5.2-9.6-17.5-14.8-28.1-11.8c-2.2,0.6-4.3,1.5-6.6,1.9s-4,3.3-4,3.3s-3,7.1-4.8,8.8
		c-1.2,1-2.8,1.3-4,2.3c-2.5,1.9-2.5,5.9-0.7,8.5s4.9,3.9,8,4.7c7.8,1.8-0.2,7,6.2,2.1l3.3,10.1c0.8,2.5,2.3,5.4,4.9,5.3
		c1.9-0.1,3.3-1.8,5.1-2.4c3-0.9,6.2,2.1,6.5,5.2s-1,6.2-2.5,9.1L634.7,117L634.7,117z"/>
	<path class="st5" d="M775.6,523c-1.8,9.9-32.3,11.6-31.8,11.3c0.1-0.9,0.1-1.8-0.2-2.7c-0.4-3-1.4-7.6-1.4-7.6s-5.7-2.2-4.5-5.1
		s-1.8-8.9-1.8-8.9c-4.7-3.5-8.4-14.6-8.4-14.6l-11.8-21l-6.1-10.6c-1-9.6-15.7-13.8-15.7-13.8s-32.5-59.4-33.7-63.8
		s-3.7-4.9-3.7-4.9s-37.8,48.8-38,51.3s-5.9,6.6-5.9,6.6s0.8,6.7-0.2,10.6s-1.7,4.5-1.7,4.5s-3.7,1.4-4.2,9.8s-14,37.7-14,37.7
		s-11.6,19.7-11.6,22.2c-0.1,2.3-0.4,4.5-0.9,6.7c-0.2,1.4-0.5,2.5-0.5,2.5s-28.9-10.8-31.1-11.6c-0.8-0.3-0.8-1.3-0.5-2.4
		c0.5-1.8,1.3-3.4,2.2-5c0,0,4-0.3,3.4-3.9s2.7-6.6,2.7-6.6l12-42.9c0,0,1.5-22.2,3.7-23s0.7-7.1-1-9.4s3.2-12,3.2-12
		s1.8-8.9,4.5-8.9s5.4-9.1,5.4-9.1l15-35.8l17.9-31.4l3.8-6.6c0,0,75.4-6.7,84.7-2.4c3.1,1.5,3.9,4.7,3.6,8.4
		c-0.6,7.2-5.6,16-5.6,16s2.9,7.2,2.2,11.6s6.6,11.1,6.6,11.1s-0.5,7.8,2,10.6s3.7,14.3,3.7,14.3s9.6,11.3,9.3,14.6
		s3.9,15.6,3.9,15.6s6.4,1.9,6.4,6.1s5.5,12,5.5,12c13.7,12.1,21.3,50.3,21.3,50.3s7.2,16.3,7.4,19.3c0.1,1.7,1.3,4.9,2.4,7.4
		C774.9,521.6,775.6,523,775.6,523L775.6,523z"/>
	<path class="st6" d="M618.7,72.7c0,0-10.7-3.3-10-5.5s6.3-12.7,7.8-13s22.3-15.5,27-16.6s17.2-3.1,19.4-2.8s8.6-5.7,11.7,7.3
		s4.7,16.8,4.7,16.8s1.8,16.9,0.8,19.3S647,96.2,647,96.2s-14.7-9-17.4-13.1S618.7,72.7,618.7,72.7L618.7,72.7z"/>
	<path class="st6" d="M712.2,326.8c-5,4.2-73.4,4.2-73.4,4.2s-23.6-2.4-34.2-4.2s-9.8-5.9-7.8-6.4s4.2-19.2,4.2-19.2
		c3.2-5.1,7.4-44.4,7.4-44.4s1.3-27.6,1-32.7s11.8-47.6,13.8-49.1c1.3-1,5.3-10,8.1-16.5c1.6-3.8,2.8-6.7,2.8-6.7
		c8.6-15.5,50.8-19.2,54.2-17.2c1.1,0.9,2,2,2.5,3.3c2.6,5.1,5.1,13.8,5.1,13.8s15.2,76.6,11.6,93.1s3.4,38.5,3.4,38.5
		S717.2,322.6,712.2,326.8L712.2,326.8z"/>
	<path class="st7" d="M625.3,324.8c0,0-7.7,14-10.4,14.5s-6.6,21.7,8.9,28.9s16-21.7,16-21.7l6.2-24.4l-16.8-6.2L625.3,324.8
		L625.3,324.8z"/>
	<path class="st7" d="M562.1,578.3C562.1,578.3,562.1,578.4,562.1,578.3c0,0.1,1.2,6.8,0.8,9.9s-8.9,1.5-12.3,0s-35.3-14.7-39-15.7
		s-19.9-12.5-25.6-22.2c-2.8-4.7-0.4-6,3.2-5.7c3.6,0.4,7.2,1.4,10.5,3c3,1.8,10.1-0.6,15.8-0.1s13.1-1,16.7-2.7s9.6-16,13.6-22.9
		s17.2,2.4,17.2,2.4s13.4,3.5,16.8,9.1s-12,24.6-11.4,28.1S562.7,577.1,562.1,578.3L562.1,578.3z"/>
	<path class="st7" d="M796.3,576.2c-1.3,5.6-33.3,17.5-33.3,17.5s-33.3,1.2-40.5-1.5c-2.2-0.7-4-2.1-5.1-4c-1.3-2.5-0.3-5,1.4-5.7
		c2.9-1.2,15.8-5,15.8-5s8.8-10.8,12.1-14.7s-0.7-10.8-4-22s16.1-11.3,16.1-11.3c8.8-8.9,18.8-6.9,18.8-6.9s1.2,19.5,7.4,26.6
		s7.2,18.5,7.2,18.5c0.3,0.2,0.5,0.3,0.8,0.5C794.5,569.3,797.3,572,796.3,576.2L796.3,576.2z"/>
	<path class="st6" d="M639.2,102.5c0,0,14.9-17.6,19.6-20.4s23.7-12.9,23.7-12.9s4.3,3.4,2.7,6.3c0,0,2.2,5.6,3.6,6.3
		s16.3,19.1,15.3,26.6s-8.5,6.2-11.6,5s-26.5-5.7-26.5-5.7L639.2,102.5L639.2,102.5z"/>
	<path class="st5" d="M693,132.4c0,0-0.7,3.4-2.7,4.7s-23.4,1.4-28.3,1.4s-32,19.5-33.3,20.7s-8.8,7.2-8.8,2s-11.1-14.6-11.2-15.3
		c0.3-2.8-0.4-5.6-2-7.9c-1.7-2.5-0.3-9.4,1.1-14.7c1.1-4,3.9-7.4,7.6-9.2c6.2-3,15.8-7.8,20.9-10.9c1.2-0.8,3.3-1.1,5.9-1.1
		c13.6,0,41.6,8.9,41.6,8.9c0.1,0.4,0.2,0.8,0.3,1.1l0,0c1.7,3.8,8,4.8,11.9,7.5C700.2,122.4,693,132.5,693,132.4L693,132.4z"/>
</g>
<g id="Person">
	<path class="st8" d="M929.6,235.3c0,0.8,0.1,1.5,0.2,2.3C929.6,236.9,929.6,236.1,929.6,235.3z"/>
	<path class="st8" d="M939,250.9c-1.4-0.7-2.6-1.6-3.8-2.6C936.4,249.4,937.7,250.2,939,250.9z"/>
	<path class="st9" d="M900.4,123.4c0,0.8,0,1.6-0.1,2.4c-1.4,15.9-15.4,27.6-31.2,26.2s-27.6-15.4-26.2-31.2s15.4-27.6,31.2-26.2
		C889,95.9,900.5,108.4,900.4,123.4L900.4,123.4z"/>
	<path class="st10" d="M871.5,153.6c2.2,0.4,21.1-7.6,22.8-9.1s2.8-3.4,3.8-5.4c3.2-6.4,4.8-13.3,4.6-20.4c0-3.6-0.7-7.3-2.9-10.2
		c-2.8-3.4-7.5-4.8-11.7-3.4c-5.2-9.6-17.5-14.8-28.1-11.8c-2.2,0.6-4.3,1.5-6.6,1.9s-4,3.3-4,3.3s-3,7.2-4.8,8.8
		c-1.2,1-2.8,1.3-4,2.3c-2.5,1.9-2.5,5.9-0.7,8.5s4.9,3.9,8,4.7c7.8,1.8-0.2,7,6.2,2.1l3.3,10.1c0.8,2.5,2.3,5.4,4.9,5.4
		c1.9-0.1,3.3-1.9,5.1-2.4c3-0.9,6.2,2.1,6.5,5.2s-1,6.2-2.5,9.1"/>
	<path class="st11" d="M1012.4,559.6c-1.8,9.9-32.3,11.6-31.8,11.3c0.1-0.9,0.1-1.8-0.2-2.7c-0.4-3-1.4-7.6-1.4-7.6
		s-5.7-2.2-4.5-5.1s-1.8-8.9-1.8-8.9c-4.7-3.5-8.4-14.7-8.4-14.7l-11.8-21l-6.1-10.6c-1-9.6-15.7-13.8-15.7-13.8
		s-32.5-59.4-33.7-63.8s-3.7-4.9-3.7-4.9s-37.8,48.8-38,51.3s-5.9,6.6-5.9,6.6s0.8,6.7-0.2,10.6s-1.7,4.5-1.7,4.5s-3.7,1.4-4.2,9.8
		s-14,37.7-14,37.7s-11.6,19.7-11.6,22.2c-0.1,2.3-0.4,4.5-0.9,6.7c-0.2,1.4-0.5,2.5-0.5,2.5s-28.9-10.8-31.1-11.6
		c-0.8-0.3-0.8-1.3-0.5-2.4c0.5-1.8,1.3-3.4,2.2-5c0,0,4-0.3,3.4-3.9s2.7-6.6,2.7-6.6l12-42.9c0,0,1.5-22.2,3.7-23s0.7-7.1-1-9.4
		s3.2-12,3.2-12s1.8-8.9,4.5-8.9s5.4-9.1,5.4-9.1l15-35.8l17.9-31.4l3.8-6.6c0,0,75.4-6.7,84.7-2.4c3.1,1.5,3.9,4.7,3.6,8.4
		c-0.6,7.2-5.6,16-5.6,16s2.9,7.2,2.2,11.6s6.6,11.1,6.6,11.1s-0.5,7.8,2,10.6s3.7,14.3,3.7,14.3s9.6,11.3,9.3,14.6
		s3.9,15.6,3.9,15.6s6.4,1.9,6.4,6.1s5.5,12,5.5,12c13.7,12.1,21.3,50.3,21.3,50.3s7.2,16.3,7.4,19.3c0.1,1.7,1.3,4.9,2.4,7.4
		C1011.7,558.1,1012.4,559.6,1012.4,559.6L1012.4,559.6z"/>
	<path class="st12" d="M900.4,123.4c0,0.8,0,1.6-0.1,2.4c-3.4,1.8-6.8,3.5-9.6,4.9c-4,2-6.8,3.4-6.8,3.4s-14.7-9-17.4-13.1
		s-11-10.4-11-10.4s-2.1-0.6-4.3-1.5c-1.3-0.5-2.5-1.1-3.7-1.7c9-13.2,27-16.7,40.3-7.7C895.6,104.9,900.4,113.9,900.4,123.4
		L900.4,123.4L900.4,123.4z"/>
	<path class="st0" d="M855.5,109.2c0,0-10.7-3.3-10-5.5s6.3-12.7,7.8-13s22.3-15.5,27-16.6s17.2-3.1,19.4-2.8s8.6-5.7,11.7,7.3
		s4.7,16.8,4.7,16.8s1.8,16.9,0.8,19.3s-33.1,18.1-33.1,18.1s-14.7-9-17.4-13.1S855.5,109.2,855.5,109.2L855.5,109.2z"/>
	<path class="st12" d="M945.8,367.2c-14.5,3.1-70.2,3.1-70.2,3.1s-11.3-1.1-21.8-2.5l3.8-6.6c0,0,75.4-6.7,84.7-2.4
		C945.4,360.3,946.1,363.5,945.8,367.2z"/>
	<path class="st2" d="M949,363.4c-5,4.2-73.4,4.2-73.4,4.2s-23.6-2.4-34.2-4.2s-9.8-5.9-7.8-6.4s4.2-19.2,4.2-19.2
		c3.2-5.1,7.4-44.4,7.4-44.4s1.3-27.6,1-32.7s11.8-47.6,13.8-49.1c1.3-1,5.3-10,8.1-16.5c1.6-3.8,2.8-6.7,2.8-6.7
		c8.6-15.5,50.8-19.2,54.2-17.2c1.1,0.9,2,2,2.5,3.3c2.6,5.1,5.1,13.8,5.1,13.8s15.2,76.6,11.6,93.1s3.4,38.5,3.4,38.5
		S954,359.2,949,363.4L949,363.4z"/>
	<rect x="886.5" y="350.1" class="st11" width="15.2" height="6.7"/>
	<path class="st12" d="M863.5,362.7c0,0-7.8,14-10.4,14.5s-6.6,21.7,8.9,29s16-21.7,16-21.7l6.2-24.4l-16.8-6.2L863.5,362.7
		L863.5,362.7z"/>
	<path class="st13" d="M862.1,361.3c0,0-7.7,14-10.4,14.5s-6.6,21.7,8.9,28.9s16-21.7,16-21.7l6.2-24.4l-16.8-6.2L862.1,361.3
		L862.1,361.3z"/>
	<path class="st12" d="M927.3,423.4c0,0,12.1,13,18.7,7.2S927.3,423.4,927.3,423.4z"/>
	<path class="st12" d="M946.3,443.6c0,0,9.9,12.5,10.1,5.7S946.3,443.6,946.3,443.6z"/>
	<path class="st12" d="M956.4,473.3c0,0,7.1,0.5,9.6-3.2L956.4,473.3z"/>
	<path class="st12" d="M963.4,484.4c0,0,4.7,2.5,7.9-1.3L963.4,484.4z"/>
	<path class="st12" d="M878,394c0,0,3,17.2,15.5,23.9L878,394z"/>
	<path class="st12" d="M827.8,488.3c0,0-1.5,4.4,6.9,5.6S827.8,488.3,827.8,488.3z"/>
	<path class="st12" d="M831.7,473.3c0,0,5.5,10.4,7.7,9.7L831.7,473.3z"/>
	<path class="st12" d="M838.7,464.1c0,0,1.7,4.8,5.9,4.3S838.7,464.1,838.7,464.1z"/>
	<path class="st12" d="M817,567.3c-0.2,1.4-0.5,2.5-0.5,2.5s-29-10.8-31.1-11.6c-0.8-0.3-0.8-1.3-0.5-2.4c4.9-4.3,16.2,3.6,16.2,3.6
		S812.6,562.5,817,567.3z"/>
	<path class="st13" d="M798.9,614.9C798.9,614.9,798.9,614.9,798.9,614.9c0,0.1,1.2,6.8,0.8,9.9s-8.9,1.5-12.3,0s-35.3-14.7-39-15.7
		s-19.9-12.5-25.6-22.2c-2.8-4.7-0.4-6,3.2-5.7c3.6,0.4,7.2,1.4,10.5,3c3,1.8,10.1-0.6,15.8-0.1s13.1-1,16.7-2.7s9.6-16,13.6-22.9
		s17.2,2.4,17.2,2.4s13.4,3.5,16.8,9.1s-12,24.6-11.4,28.1S799.5,613.6,798.9,614.9L798.9,614.9z"/>
	<path class="st13" d="M799.7,624.7c-0.3,3-8.9,1.5-12.3,0s-35.3-14.7-39-15.7s-19.9-12.5-25.6-22.2c-2.8-4.7-0.4-6,3.2-5.7
		c1.9,4.1,4.9,7.5,8.6,10c9.9,7,31.5,16.9,31.5,16.9s12.1-0.5,17.7,3c3.7,2.3,10.8,3.3,15.2,3.8c0,0,0,0.1,0,0.1
		C798.9,614.9,800,621.7,799.7,624.7L799.7,624.7z"/>
	<path class="st13" d="M795,570.9c0,0-12,22.7-12,24.2s-4.7,15.7-4.7,15.7l8.3,3.4l3.1-18.2l11.1-21.9L795,570.9L795,570.9z"/>
	<path class="st12" d="M1012.4,559.6c-1.8,9.9-32.3,11.6-31.8,11.3c0.1-0.9,0.1-1.8-0.2-2.7c4-4.9,15.2-4.9,15.2-4.9
		c4-4.2,9.5-6.7,15.3-7C1011.7,558.1,1012.4,559.6,1012.4,559.6L1012.4,559.6z"/>
	<path class="st13" d="M1033.1,612.8c-1.3,5.6-33.3,17.5-33.3,17.5s-33.3,1.2-40.5-1.5c-2.2-0.7-4-2.1-5.1-4c-1.3-2.5-0.3-5,1.4-5.7
		c2.9-1.2,15.8-5,15.8-5s8.8-10.8,12.1-14.7s-0.7-10.8-4-22s16.1-11.3,16.1-11.3c8.8-8.9,18.8-6.9,18.8-6.9s1.2,19.5,7.4,26.6
		c6.2,7.1,7.2,18.5,7.2,18.5c0.3,0.2,0.5,0.3,0.8,0.5C1031.3,605.8,1034.1,608.6,1033.1,612.8L1033.1,612.8z"/>
	<path class="st13" d="M1033.1,612.8c-1.3,5.6-33.3,17.5-33.3,17.5s-33.3,1.2-40.5-1.5c-2.2-0.7-4-2.1-5.1-4c6.9,1.1,19.9,3,22,2.5
		c2.8-0.7,14,0.5,20.4-5.1s16-9.4,16-9.4s11.5-4.7,17.4-8C1031.3,605.8,1034.1,608.6,1033.1,612.8z"/>
	<polygon class="st13" points="1000,575.8 1005.8,598 1013.4,615.5 1019.5,612.6 1010.6,595.6 1004.2,575.8 	"/>
	<path class="st12" d="M800.9,574.1l-5.9-3.2c0,0-12,22.7-12,24.2c0,1.2-3,10.4-4.2,14.1c-4.2-0.9-8.5-1.3-12.8-1.1
		c0,0-21.5-9.9-31.5-16.9c-3.7-2.5-6.7-5.9-8.6-10c-3.5-0.2-5.9,1-3.2,5.7c5.7,9.8,21.9,21.2,25.6,22.2s35.7,14.1,39,15.7
		s11.9,3,12.3,0s-0.8-9.8-0.8-9.8c0,0,0-0.1,0-0.1c-4.1-0.3-8.1-1.1-12-2.3l2.8-16.6L800.9,574.1L800.9,574.1z"/>
	<path class="st12" d="M1029.8,604.7c-3.2,1.8-7.8,4-11.6,5.6l-7.7-14.7l-6.4-19.8h-4.2l5.9,22.2l6.4,14.9
		c-1.2,0.5-9.9,4.2-15.8,9.4c-6.4,5.6-17.5,4.4-20.4,5.1c-2.1,0.5-15.1-1.4-22-2.5c1.2,1.9,3,3.3,5.1,4c7.2,2.7,40.5,1.5,40.5,1.5
		s32-11.9,33.3-17.5C1034.1,608.6,1031.3,605.8,1029.8,604.7z"/>
	<path class="st2" d="M876,139c0,0,14.9-17.6,19.6-20.4s23.7-12.9,23.7-12.9s4.3,3.4,2.7,6.3c0,0,2.2,5.6,3.6,6.3
		s16.3,19.1,15.3,26.6s-8.5,6.2-11.6,5s-26.5-5.7-26.5-5.7L876,139L876,139z"/>
	<path class="st12" d="M898.8,126.9c0,0,10.2-3,11,0S898.8,126.9,898.8,126.9z"/>
	<path class="st12" d="M927.7,174.5c-0.2,0.2-0.4,0.4-0.7,0.5c-2,1.3-23.4,1.3-28.3,1.3c-4.1,0-23.3,13.4-30.6,18.7
		c1.6-3.8,2.8-6.7,2.8-6.7c8.6-15.5,50.8-19.2,54.2-17.2C926.3,172.1,927.2,173.2,927.7,174.5L927.7,174.5z"/>
	<path class="st11" d="M929.8,169c0,0-0.7,3.4-2.7,4.7s-23.4,1.4-28.3,1.4s-32,19.5-33.3,20.7s-8.8,7.2-8.8,2s-11.1-14.6-11.2-15.3
		c0.3-2.8-0.4-5.6-2-7.9c-1.7-2.5-0.3-9.4,1.1-14.7c1.1-4,3.9-7.4,7.6-9.2c6.2-3,15.8-7.8,20.9-10.9c1.2-0.8,3.3-1.1,5.9-1.1
		c13.6,0,41.6,8.9,41.6,8.9c0.1,0.4,0.2,0.8,0.3,1.1l0,0c1.7,3.8,8,4.8,11.9,7.5C937,158.9,929.8,169,929.8,169L929.8,169z"/>
	<path class="st12" d="M852.2,167.5c0,0,16.3,0.8,17.2,1.6S852.2,167.5,852.2,167.5z"/>
	<path class="st12" d="M897,185c0,0-25.5,12.4-23.6,22.6c0,0,3.2,3.5,1.7,7.4s-2.9,31.1-1,33.1s3.9,6.9,2.9,10.3s1.5,18.5,1.5,18.5
		s3.7,7.6-0.7,9.3s-0.5,7.2-0.5,7.2s0,6.9-4.1,7.2s-0.8,9.1-0.8,9.1s-2,5.9-5.2,5.4s1.8,8.4,1.8,8.4s-12.3,8.2-10.8,21.9l-1.7,9.2
		l24.2,10.4l3.2-6.1c0,0,6.6-1.5,5.7-5.6s4.4-6.4,4.4-6.4s1-6.2,4.4-8.9S907,324,907,324s3-6.4,7.2-9.1s7.6-15.8,7.6-15.8l2.5-90.4
		C924.4,208.7,915.1,180.9,897,185L897,185z"/>
	<path class="st12" d="M902.3,185c0,0-25.5,12.4-23.6,22.6c0,0,3.3,3.5,1.7,7.4s-2.9,31.1-1,33.1s3.9,6.9,2.9,10.3
		s1.5,18.5,1.5,18.5s3.7,7.6-0.7,9.3s-0.5,7.2-0.5,7.2s0.1,6.9-4.1,7.2s-0.8,9.1-0.8,9.1s-2,5.9-5.2,5.4s1.9,8.4,1.9,8.4
		s-12.3,8.2-10.8,21.9l-1.7,9.2l24.2,10.4l3.2-6.1c0,0,6.6-1.5,5.7-5.6s4.4-6.4,4.4-6.4s1-6.2,4.4-8.9s8.6-14.1,8.6-14.1
		s3-6.4,7.2-9.1s7.6-15.8,7.6-15.8l2.5-90.4C929.8,208.7,920.6,180.9,902.3,185L902.3,185z"/>
	<path class="st2" d="M899.7,185c0,0-25.5,12.4-23.6,22.6c0,0,3.3,3.5,1.7,7.4s-2.9,31.1-1,33.1s3.9,6.9,2.9,10.3s1.5,18.5,1.5,18.5
		s3.7,7.6-0.7,9.3s-0.5,7.2-0.5,7.2s0,6.9-4.1,7.2s-0.8,9.1-0.8,9.1s-2,5.9-5.2,5.4s1.8,8.4,1.8,8.4s-12.3,8.2-10.8,21.9l-1.7,9.2
		l24.2,10.4l3.2-6.1c0,0,6.6-1.5,5.7-5.6s4.4-6.4,4.4-6.4s1-6.2,4.4-8.9s8.6-14.1,8.6-14.1s3-6.4,7.2-9.1s7.6-15.8,7.6-15.8
		l2.5-90.4C927.1,208.7,917.8,180.9,899.7,185L899.7,185z"/>
	<path class="st12" d="M882,299.3c0,0,6.9,6.6,6.9,8.4s-9.1-3.4-9.1-3.4L882,299.3L882,299.3z"/>
	<path class="st12" d="M878,315.4c0,0,6.7,7.6,4.5,7.9S878,315.4,878,315.4z"/>
	<path class="st12" d="M888.9,339.1c0,0-15.3,2.5-11.8,3.5S888.9,339.1,888.9,339.1z"/>
	<path class="st12" d="M893.2,289.1c0,0,27.7,12.5,23,15.8S893.2,289.1,893.2,289.1z"/>
	<path class="st12" d="M920.9,148.6c-0.7-0.5-44.9-9.5-44.9-9.5l2.9-0.4c13.6,0,41.6,8.9,41.6,8.9
		C920.7,147.8,920.8,148.2,920.9,148.6z"/>
	<path class="st12" d="M889.4,83.9c0,0,13.2,17.4,19.5,13S899,82.6,889.4,83.9z"/>
	<path class="st12" d="M859.3,185.8c0,0,11.2-3.4,12.2-4S859.3,185.8,859.3,185.8z"/>
	<path class="st12" d="M911.8,168.9c0,0,11.7,1,12.8,0.7S911.8,168.9,911.8,168.9z"/>
	<path class="st12" d="M918,156.9c0,0,11.7,1,12.8,0.7S918,156.9,918,156.9z"/>
	<path class="st12" d="M885.2,156.1c0,0,11.7,1,12.8,0.7S885.2,156.1,885.2,156.1z"/>
	<path class="st12" d="M856.6,179.8c0,0,11.2-3.4,12.2-4S856.6,179.8,856.6,179.8z"/>
</g>
<g id="Flags">
	<g>
		
			<linearGradient id="SVGID_1_" gradientUnits="userSpaceOnUse" x1="2608.0498" y1="794.72" x2="2880.1169" y2="794.72" gradientTransform="matrix(-1 0 0 1 2889.3799 -509.46)">
			<stop  offset="0" style="stop-color:#808080;stop-opacity:0.25"/>
			<stop  offset="0.54" style="stop-color:#808080;stop-opacity:0.12"/>
			<stop  offset="1" style="stop-color:#808080;stop-opacity:0.1"/>
		</linearGradient>
		<path class="st14" d="M16.5,290.4c-3.2-5.2-7.9-10-7.2-15.9c8.7,1,17-1.1,25-4.8s15.4-8.5,22.9-13.2c3-1.9,5.9-3.7,8.8-5.4
			c4.6-2.7,9.2-5.6,13.9-8.2c6.8-3.7,13.7-6.8,21.2-7.3c1.4-0.1,2.8-0.1,4.1-0.1c9.3,0.2,19,2.7,27.2-1.5l0.5-0.3
			c4.6-2.6,8-6.9,12-10.4c2.9-2.5,6-4.7,9.3-6.5c6.1-3.4,12.6-6.1,18.8-9.3c1.6-0.8,3.1-1.8,4.5-2.9l1.1-0.8l0.2-0.2l0.8-0.6
			l0.5-0.4l0.5-0.4l0.4-0.4l0.6-0.6l0.1-0.1l1-1l0.4-0.4l0.7-0.7l0.4-0.4l2.1-2.1c0.8-0.8,1.6-1.6,2.5-2.4l0,0l0.8-0.7l0.2-0.2
			l0.6-0.6l0.3-0.3l0.6-0.5l0.3-0.2l1-0.7c0.3-0.2,0.6-0.4,0.9-0.5l-2-5.1l6.1-2.5l83.5,202.6l-6,2.5l-47.8-115.9l-0.3,0.3
			c-11.1,10.9-24.6,19-39.5,23.5h-0.1c-8.3,2.5-17.6,4.3-24.6,9c-2.5,1.6-4.6,3.7-6.4,6.1c-1.6,2.3-2.8,5-4.6,7.3
			c-0.3,0.4-0.7,0.8-1.1,1.2c-2.1,2-4.3,3.8-6.8,5.3l-1.1,0.7c-7.2,5.1-14.8,9.8-22.6,14c-4.5,2.4-9.2,4.3-14.1,5.9
			c-3.5,1.1-7.2,2-10.7,3.1c-2.4,0.7-4.7,1.6-6.9,2.8c-6,3.1-10.5,8-14.9,13.2c-3.8,4.6-7.4,9.4-11.5,13.6c-2.6,2.6-6.6,5-9.7,3.5
			c-0.2-0.1-0.4-0.2-0.6-0.4c0.1-0.2,0.2-0.3,0.3-0.5c2.5-5.2-0.6-11.6-4.7-15.8c-0.4-0.4-0.9-0.9-1.3-1.3s-1.2-1.1-1.9-1.7
			c-3.5-3-7.3-5.8-9.7-9.7c-1.9-3.3-3.1-6.9-3.7-10.6c-1.1-5.3-1.9-10.8-4.8-15.3c-1.9-3-4.7-5.5-6.8-8.4c-1.3-1.7-2.1-3.7-2.5-5.8
			c-0.5-3.7,1.2-7.2,1.9-10.9c0.2-1,0.3-2,0.2-3C19,295.3,18.1,292.7,16.5,290.4L16.5,290.4z"/>
		
			<rect x="231.8" y="177.6" transform="matrix(0.9245 -0.3811 0.3811 0.9245 -91.0027 111.0882)" class="st15" width="6.4" height="215.4"/>
		<path class="st16" d="M28.3,325.3c2.8,4.4,3.6,9.8,4.7,15c0.6,3.7,1.8,7.2,3.7,10.4c2.4,3.8,6.1,6.6,9.5,9.6
			c0.6,0.5,1.3,1.1,1.9,1.6s0.9,0.8,1.3,1.2c4,4.1,7,10.4,4.6,15.6c-0.1,0.2-0.2,0.3-0.3,0.5c0.2,0.1,0.4,0.2,0.6,0.4
			c3.1,1.5,7-0.9,9.6-3.5c4.1-4.1,7.6-8.8,11.4-13.3c4.2-5.1,8.8-9.9,14.6-13c2.2-1.1,4.4-2,6.8-2.7c3.4-1.1,7-1.9,10.5-3
			c4.8-1.5,9.4-3.4,13.8-5.8c7.7-4.1,15.1-8.7,22.2-13.7l1.1-0.7c2.4-1.5,4.6-3.3,6.6-5.2c0.4-0.4,0.7-0.8,1-1.2
			c1.7-2.2,2.9-4.8,4.5-7.1c1.7-2.4,3.8-4.4,6.2-6c6.9-4.6,16-6.3,24.2-8.8h0.1c14.6-4.4,27.9-12.4,38.8-23.1
			c0.9-0.8,1.6-1.7,1.9-2.9c0.4-1.6-0.5-3.1-1.3-4.5c-1-1.6-1.9-3.3-2.8-5c-4.1-7.6-7.9-15.4-11.1-23.3c-0.7-1.7-1.4-3.5-2.1-5.3
			c-1.7-4.5-3.2-9.1-4.7-13.7c-0.5-1.5-0.9-3.1-1.3-4.6c-0.1-0.3-0.2-0.6-0.2-0.9c-1.9-7.6-4.4-25.1-12.1-19.9
			c-2.3,1.6-4.4,3.5-6.4,5.5c-1.5,1.5-3,3.1-4.5,4.6c-1.2,1.2-2.6,2.4-4,3.5c-1.4,1.1-2.9,2-4.5,2.8c-6.1,3.1-12.6,5.8-18.5,9.1
			c-3.3,1.8-6.4,3.9-9.2,6.4c-3.9,3.5-7.3,7.7-11.8,10.2l-0.5,0.3c-8.1,4.1-17.6,1.6-26.8,1.5c-1.4,0-2.7,0-4.1,0.1
			c-7.4,0.6-14.3,3.6-20.9,7.2c-4.6,2.6-9.2,5.5-13.7,8.1c-2.9,1.6-5.8,3.4-8.7,5.3c-7.4,4.6-14.8,9.5-22.5,13s-16,5.7-24.6,4.7
			c-0.7,5.8,3.9,10.5,7.1,15.6c1.5,2.2,2.4,4.7,2.6,7.4c0,1,0,2-0.2,3c-0.6,3.6-2.2,7.1-1.9,10.7c0.3,2,1.2,4,2.4,5.6
			C23.7,319.9,26.4,322.4,28.3,325.3L28.3,325.3z"/>
		<path class="st17" d="M177.3,206.1l6.3,14.9l20.6-8.7c-1.9-7.6-4.4-25.1-12-19.8C186.6,196.3,182.8,201.8,177.3,206.1z"/>
		<path class="st17" d="M133.3,234.6l2.7,6.4l23.8-10l-5.5-13c-3.3,1.8-6.4,3.9-9.2,6.4C141.2,227.8,137.9,232.1,133.3,234.6
			L133.3,234.6z"/>
		<path class="st17" d="M81.1,243.6l7.3,17.3l23.8-10l-6.2-14.6c-1.4,0-2.7,0-4.1,0.1C94.5,237,87.7,240,81.1,243.6L81.1,243.6z"/>
		<path class="st17" d="M36.2,270l4.6,11l23.8-10l-5.9-14C51.4,261.6,43.9,266.5,36.2,270L36.2,270z"/>
		
			<rect x="163.8" y="224.9" transform="matrix(0.9217 -0.3878 0.3878 0.9217 -78.4035 87.1281)" class="st17" width="25.8" height="25.8"/>
		
			<rect x="116.2" y="244.9" transform="matrix(0.9217 -0.3878 0.3878 0.9217 -89.8854 70.2421)" class="st17" width="25.8" height="25.8"/>
		
			<rect x="68.6" y="264.9" transform="matrix(0.9217 -0.3878 0.3878 0.9217 -101.3754 53.3645)" class="st17" width="25.8" height="25.8"/>
		<path class="st17" d="M21.1,300.7l5.9,14.1l23.8-10l-10-23.8l-22.1,9.3c1.5,2.2,2.4,4.7,2.6,7.4C21.4,298.7,21.3,299.7,21.1,300.7
			L21.1,300.7z"/>
		<path class="st17" d="M193.6,244.7l10,23.8l20-8.4c-4.1-7.6-7.9-15.4-11.1-23.3L193.6,244.7L193.6,244.7z"/>
		
			<rect x="150" y="258.7" transform="matrix(0.9217 -0.3878 0.3878 0.9217 -92.5852 84.4293)" class="st17" width="25.8" height="25.8"/>
		
			<rect x="102.4" y="278.7" transform="matrix(0.9217 -0.3878 0.3878 0.9217 -104.0757 67.5469)" class="st17" width="25.8" height="25.8"/>
		
			<rect x="54.8" y="298.8" transform="matrix(0.9217 -0.3878 0.3878 0.9217 -115.5698 50.6677)" class="st17" width="25.8" height="25.8"/>
		<path class="st17" d="M179.8,278.5l7.2,17c8.3-2.5,16.2-6.2,23.4-10.8l-6.8-16.2L179.8,278.5L179.8,278.5z"/>
		<path class="st17" d="M132.2,298.6l10,23.8l8.7-3.7c0.4-0.4,0.7-0.8,1-1.2c1.7-2.2,2.9-4.8,4.5-7.1c1.7-2.4,3.8-4.4,6.2-6
			l-6.7-15.8L132.2,298.6L132.2,298.6z"/>
		
			<rect x="88.6" y="312.5" transform="matrix(0.9217 -0.3878 0.3878 0.9217 -118.2623 64.8543)" class="st17" width="25.8" height="25.8"/>
		<path class="st17" d="M37.1,338.6l9.1,21.7c0.6,0.5,1.3,1.1,1.9,1.6l22.8-9.6l-10-23.8L37.1,338.6L37.1,338.6z"/>
		<path class="st17" d="M33,340.3l4.1-1.7l-10-23.8l-5.4,2.2c2,2.8,4.8,5.3,6.6,8.2C31.2,329.8,31.9,335.1,33,340.3L33,340.3z"/>
		<path class="st17" d="M118.4,332.4l2.5,6c7.7-4.1,15.1-8.7,22.2-13.7l-1-2.3L118.4,332.4L118.4,332.4z"/>
		<path class="st17" d="M70.9,352.4l4.4,10.5c4.2-5.1,8.8-9.9,14.6-13c2.2-1.1,4.4-2,6.8-2.7l-2-4.8L70.9,352.4L70.9,352.4z"/>
	</g>
	
		<linearGradient id="SVGID_00000043437707867450774730000009306036526112978864_" gradientUnits="userSpaceOnUse" x1="2874.4702" y1="794.7" x2="3146.5371" y2="794.7" gradientTransform="matrix(1 0 0 1 -2641.79 -509.46)">
		<stop  offset="0" style="stop-color:#808080;stop-opacity:0.25"/>
		<stop  offset="0.54" style="stop-color:#808080;stop-opacity:0.12"/>
		<stop  offset="1" style="stop-color:#808080;stop-opacity:0.1"/>
	</linearGradient>
	<path style="fill:url(#SVGID_00000043437707867450774730000009306036526112978864_);" d="M494.8,297.9c0,1,0,2,0.2,3
		c0.6,3.6,2.3,7.2,1.9,10.9c-0.3,2.1-1.2,4.1-2.5,5.8c-2,2.9-4.9,5.4-6.8,8.4c-2.9,4.5-3.6,10-4.8,15.3c-0.6,3.7-1.9,7.3-3.7,10.6
		c-2.4,3.9-6.2,6.7-9.7,9.7c-0.6,0.6-1.5,1.3-1.9,1.7s-0.9,0.8-1.3,1.3c-4.1,4.2-7.2,10.6-4.7,15.8c0.1,0.2,0.2,0.4,0.3,0.5
		c-0.2,0.1-0.4,0.3-0.6,0.4c-3.2,1.5-7.1-0.9-9.7-3.5c-4.2-4.2-7.8-9-11.5-13.6c-4.3-5.2-8.9-10.1-14.9-13.2c-2.2-1.1-4.5-2-6.9-2.8
		c-3.5-1.1-7.1-1.9-10.7-3.1c-4.8-1.5-9.5-3.5-14-5.9c-7.8-4.2-15.4-8.9-22.6-14l-1.1-0.7c-2.4-1.5-4.7-3.3-6.8-5.3
		c-0.4-0.4-0.7-0.8-1-1.2c-1.8-2.2-2.9-4.9-4.6-7.3c-1.7-2.4-3.9-4.5-6.4-6.1c-7-4.7-16.3-6.5-24.6-9h-0.1
		c-14.9-4.5-28.4-12.6-39.5-23.5l-0.3-0.3l-47.8,115.9l-6.1-2.5l83.5-202.6l6,2.5l-2,5.1c0.3,0.1,0.6,0.3,1,0.5l1,0.7l0.3,0.2
		l0.6,0.5l0.3,0.3l0.6,0.6l0.2,0.2l0.8,0.7l0,0c0.9,0.8,1.7,1.6,2.5,2.4l2.1,2.1l0.4,0.4l0.7,0.7l0.4,0.4l1,1l0.1,0.1l0.6,0.6
		l0.4,0.4l0.5,0.4l0.5,0.4l0.8,0.6l0.2,0.2l1.1,0.8c1.4,1.1,2.9,2.1,4.5,2.9c6.2,3.2,12.8,5.9,18.8,9.3c3.3,1.8,6.5,4,9.3,6.5
		c4,3.5,7.4,7.9,12,10.4l0.5,0.3c8.2,4.2,17.9,1.7,27.2,1.5c1.4,0,2.8,0,4.1,0.1c7.6,0.6,14.5,3.6,21.2,7.3c4.7,2.6,9.3,5.6,14,8.2
		c2.9,1.7,5.9,3.5,8.8,5.4c7.5,4.7,14.9,9.5,22.9,13.2s16.3,5.8,25,4.8c0.7,5.9-4,10.6-7.2,15.9C496,292.6,495.1,295.2,494.8,297.9
		L494.8,297.9z"/>
	
		<rect x="171.3" y="282.1" transform="matrix(0.3811 -0.9245 0.9245 0.3811 -91.1328 434.5424)" class="st15" width="215.4" height="6.5"/>
	<path class="st16" d="M492.3,317c1.3-1.6,2.1-3.6,2.4-5.6c0.4-3.6-1.2-7.1-1.9-10.7c-0.2-1-0.3-2-0.2-3c0.2-2.6,1.1-5.2,2.6-7.4
		c3.1-5.1,7.8-9.8,7.1-15.6c-8.6,1-16.9-1.2-24.6-4.7s-15.1-8.4-22.5-13c-2.9-1.8-5.8-3.6-8.7-5.3c-4.6-2.6-9.1-5.5-13.7-8.1
		c-6.6-3.6-13.4-6.6-20.9-7.2c-1.3-0.1-2.7-0.1-4.1-0.1c-9.2,0.2-18.7,2.7-26.8-1.5l-0.5-0.3c-4.6-2.5-7.9-6.8-11.8-10.2
		c-2.8-2.4-5.9-4.6-9.2-6.4c-6-3.4-12.4-6-18.5-9.1c-1.6-0.8-3.1-1.8-4.5-2.8c-1.4-1.1-2.7-2.2-4-3.5c-1.5-1.5-3-3.1-4.5-4.6
		c-1.9-2-4.1-3.9-6.4-5.5c-7.7-5.2-10.2,12.3-12,19.9c-0.1,0.3-0.2,0.6-0.2,0.9c-0.4,1.6-0.9,3.1-1.3,4.6c-1.4,4.6-3,9.2-4.7,13.7
		c-0.7,1.8-1.4,3.5-2.1,5.3c-3.2,8-7,15.8-11.1,23.3c-0.9,1.7-1.8,3.3-2.8,5c-0.8,1.4-1.7,2.9-1.3,4.5c0.4,1.1,1,2.1,2,2.9
		c10.9,10.7,24.2,18.6,38.8,23.1h0.1c8.2,2.5,17.3,4.2,24.2,8.8c2.4,1.6,4.6,3.6,6.2,6c1.6,2.3,2.8,4.9,4.5,7.1
		c0.3,0.4,0.7,0.8,1,1.2c2,2,4.2,3.8,6.6,5.2l1.1,0.7c7.1,5,14.5,9.6,22.2,13.7c4.4,2.3,9.1,4.2,13.8,5.8c3.5,1.1,7,1.9,10.5,3
		c2.3,0.7,4.6,1.6,6.8,2.7c5.9,3.1,10.4,7.9,14.6,13c3.7,4.5,7.3,9.2,11.4,13.3c2.5,2.5,6.5,5,9.6,3.5c0.2-0.1,0.4-0.2,0.6-0.4
		c-0.1-0.2-0.2-0.3-0.3-0.5c-2.4-5.1,0.6-11.5,4.6-15.6c0.4-0.4,0.7-0.7,1.3-1.2s1.2-1.1,1.9-1.6c3.5-3,7.1-5.8,9.5-9.6
		c1.8-3.2,3.1-6.8,3.7-10.4c1.1-5.2,1.8-10.6,4.7-15C487.6,322.4,490.3,319.9,492.3,317L492.3,317z"/>
	<path class="st17" d="M321.9,192.5c-7.7-5.2-10.2,12.3-12,19.8l20.6,8.7l6.3-14.9C331.2,201.8,327.4,196.3,321.9,192.5z"/>
	<path class="st17" d="M368.9,224.4c-2.8-2.4-5.9-4.6-9.2-6.4l-5.5,13l23.8,10l2.7-6.4C376.1,232.1,372.8,227.8,368.9,224.4
		L368.9,224.4z"/>
	<path class="st17" d="M412,236.4c-1.3-0.1-2.7-0.1-4.1-0.1l-6.2,14.6l23.8,10l7.3-17.3C426.3,240,419.5,237,412,236.4L412,236.4z"
		/>
	<path class="st17" d="M455.3,257l-5.9,14l23.8,10l4.6-11C470.1,266.5,462.6,261.7,455.3,257L455.3,257z"/>
	
		<rect x="324.4" y="224.9" transform="matrix(0.3878 -0.9217 0.9217 0.3878 -12.6754 456.5135)" class="st17" width="25.8" height="25.8"/>
	
		<rect x="372" y="244.9" transform="matrix(0.3878 -0.9217 0.9217 0.3878 -2.0064 512.6057)" class="st17" width="25.8" height="25.8"/>
	
		<rect x="419.6" y="264.9" transform="matrix(0.3878 -0.9217 0.9217 0.3878 8.6496 568.7125)" class="st17" width="25.8" height="25.8"/>
	<path class="st17" d="M492.7,297.7c0.2-2.6,1.1-5.2,2.6-7.4l-22.1-9.3l-10,23.8l23.8,10l6-14.1
		C492.7,299.7,492.6,298.7,492.7,297.7L492.7,297.7z"/>
	<path class="st17" d="M301.5,236.8c-3.2,8-7,15.8-11.1,23.3l20,8.4l10-23.8L301.5,236.8L301.5,236.8z"/>
	
		<rect x="338.2" y="258.7" transform="matrix(0.3878 -0.9217 0.9217 0.3878 -35.3964 489.8885)" class="st17" width="25.8" height="25.8"/>
	
		<rect x="385.8" y="278.7" transform="matrix(0.3878 -0.9217 0.9217 0.3878 -24.7237 545.9955)" class="st17" width="25.8" height="25.8"/>
	
		<rect x="433.4" y="298.8" transform="matrix(0.3878 -0.9217 0.9217 0.3878 -14.0809 602.1101)" class="st17" width="25.8" height="25.8"/>
	<path class="st17" d="M310.4,268.5l-6.8,16.2c7.3,4.7,15.2,8.3,23.5,10.8l7.2-17L310.4,268.5L310.4,268.5z"/>
	<path class="st17" d="M358,288.5l-6.7,15.8c2.4,1.6,4.6,3.6,6.2,6c1.6,2.3,2.8,4.9,4.5,7.1c0.3,0.4,0.7,0.8,1,1.2l8.7,3.7l10-23.8
		L358,288.5L358,288.5z"/>
	
		<rect x="399.6" y="312.5" transform="matrix(0.3878 -0.9217 0.9217 0.3878 -47.4442 579.3773)" class="st17" width="25.8" height="25.8"/>
	<path class="st17" d="M453.1,328.6l-10,23.8l22.8,9.6c0.6-0.5,1.2-1.1,1.9-1.6l9.1-21.7L453.1,328.6L453.1,328.6z"/>
	<path class="st17" d="M485.7,325.3c1.9-2.9,4.6-5.4,6.6-8.2l-5.4-2.2l-10,23.8l4.1,1.7C482.1,335.1,482.8,329.7,485.7,325.3
		L485.7,325.3z"/>
	<path class="st17" d="M371.8,322.3l-1,2.3c7.1,5,14.5,9.6,22.2,13.7l2.5-6L371.8,322.3L371.8,322.3z"/>
	<path class="st17" d="M419.4,342.4l-2,4.8c2.3,0.7,4.6,1.6,6.8,2.7c5.9,3.1,10.4,7.9,14.6,13l4.4-10.5L419.4,342.4L419.4,342.4z"/>
</g>
</svg>
